<svg width="20" height="21" viewBox="0 0 20 21" fill="none" xmlns="http://www.w3.org/2000/svg">
<g id="Component 11">
<path id="Union" fill-rule="evenodd" clip-rule="evenodd" d="M3.35605 4.17502H3.34766C3.28841 4.18635 3.22977 4.19971 3.17182 4.21506C1.68509 4.58741 1.25 5.93447 1.25 6.75V7.6906C1.23717 7.79271 1.23058 7.89603 1.23047 8.00002V15.5C1.23119 16.1628 1.49482 16.7983 1.9635 17.267C2.43219 17.7357 3.06765 17.9993 3.73047 18H16.2305C16.8933 17.9993 17.5288 17.7357 17.9974 17.267C18.4661 16.7983 18.7297 16.1628 18.7305 15.5V8.00002C18.7297 7.3372 18.4661 6.70173 17.9974 6.23305C17.5288 5.76436 16.8933 5.50074 16.2305 5.50002H6.25535C6.25358 5.50001 6.25179 5.5 6.25 5.5C5.58874 5.5 5.51621 4.69867 6.0773 4.56252H16.2305C16.3765 4.56245 16.5224 4.57171 16.6672 4.59025C16.6181 4.24563 16.4997 3.91452 16.3192 3.61689C16.1387 3.31925 15.8998 3.06126 15.6168 2.85846C15.3339 2.65565 15.0129 2.51225 14.673 2.43688C14.3332 2.36152 13.9816 2.35575 13.6395 2.41994L3.76738 4.10536C3.63133 4.12618 3.49378 4.14931 3.35605 4.17502ZM13.6805 12.7894C13.8861 12.9267 14.1278 13 14.375 13C14.7065 13 15.0245 12.8683 15.2589 12.6339C15.4933 12.3995 15.625 12.0815 15.625 11.75C15.625 11.5028 15.5517 11.2611 15.4143 11.0556C15.277 10.85 15.0818 10.6898 14.8534 10.5952C14.6249 10.5006 14.3736 10.4758 14.1311 10.524C13.8887 10.5723 13.6659 10.6913 13.4911 10.8661C13.3163 11.0409 13.1972 11.2637 13.149 11.5062C13.1008 11.7486 13.1255 12 13.2201 12.2284C13.3148 12.4568 13.475 12.652 13.6805 12.7894Z" fill="#F2EAFF" fill-opacity="0.8"/>
</g>
</svg>
