<svg width="20" height="21" viewBox="0 0 20 21" fill="none" xmlns="http://www.w3.org/2000/svg">
<g id="Component 11">
<path id="Vector" d="M7.9 3.39065C6.48867 2.71682 4.51602 2.38674 1.875 2.37502C1.62593 2.37164 1.38174 2.44427 1.175 2.58322C1.00531 2.69792 0.866402 2.85256 0.770498 3.03354C0.674593 3.21452 0.62463 3.41629 0.625002 3.62111V14.7969C0.625002 15.5524 1.1625 16.1223 1.875 16.1223C4.65117 16.1223 7.43594 16.3817 9.10391 17.9582C9.12672 17.9799 9.15541 17.9944 9.18639 17.9999C9.21737 18.0054 9.24928 18.0017 9.27816 17.9892C9.30704 17.9767 9.33162 17.956 9.34884 17.9297C9.36605 17.9033 9.37515 17.8725 9.375 17.841V4.67268C9.37507 4.58383 9.35606 4.49601 9.31927 4.41514C9.28247 4.33427 9.22875 4.26224 9.16172 4.20393C8.77965 3.8773 8.35525 3.60374 7.9 3.39065ZM18.825 2.58205C18.6182 2.44344 18.374 2.37122 18.125 2.37502C15.484 2.38674 13.5113 2.71526 12.1 3.39065C11.6448 3.60335 11.2203 3.87638 10.8379 4.20236C10.771 4.26078 10.7174 4.33284 10.6807 4.41369C10.644 4.49454 10.625 4.58232 10.625 4.67111V17.8403C10.625 17.8705 10.6339 17.9001 10.6506 17.9252C10.6673 17.9504 10.6911 17.9701 10.719 17.9819C10.7469 17.9936 10.7776 17.9968 10.8073 17.9911C10.837 17.9855 10.8643 17.9712 10.8859 17.95C11.8887 16.9539 13.6484 16.1211 18.1266 16.1215C18.4581 16.1215 18.776 15.9898 19.0104 15.7554C19.2449 15.521 19.3766 15.203 19.3766 14.8715V3.62151C19.377 3.41628 19.3269 3.2141 19.2307 3.03282C19.1346 2.85153 18.9952 2.69672 18.825 2.58205Z" fill="#F2EAFF" fill-opacity="0.8"/>
</g>
</svg>
