<svg width="20" height="21" viewBox="0 0 20 21" fill="none" xmlns="http://www.w3.org/2000/svg">
<g id="Component 11">
<path id="Vector" d="M18.7139 4.85001C18.705 4.71039 18.6496 4.57777 18.5565 4.47338C18.4634 4.36899 18.3379 4.29886 18.2002 4.27422C14.8213 3.66797 13.4107 3.22969 10.2576 1.80547C10.1767 1.76891 10.089 1.75 10.0002 1.75C9.91143 1.75 9.82367 1.76891 9.74278 1.80547C6.58965 3.22969 5.17911 3.66797 1.8002 4.27422C1.66249 4.29886 1.53703 4.36899 1.4439 4.47338C1.35077 4.57777 1.29536 4.71039 1.28653 4.85001C1.13614 7.23712 1.45684 9.46133 2.24082 11.4609C2.88283 13.092 3.83294 14.5841 5.03926 15.8559C7.12793 18.0719 9.34551 19.0344 9.76856 19.2047C9.91889 19.2655 10.087 19.2655 10.2373 19.2047C10.6604 19.0344 12.8779 18.0719 14.9666 15.8559C16.171 14.5837 17.1192 13.0916 17.7596 11.4609C18.5436 9.46133 18.8643 7.23712 18.7139 4.85001ZM13.5967 7.78399L9.26856 12.784C9.21291 12.8485 9.14466 12.9009 9.06802 12.938C8.99138 12.9752 8.90795 12.9963 8.82286 13H8.79708C8.6335 13 8.47643 12.936 8.35958 12.8215L6.4377 10.9387C6.37907 10.8812 6.33232 10.8128 6.30014 10.7373C6.26796 10.6617 6.25096 10.5806 6.25013 10.4985C6.24844 10.3328 6.31268 10.1731 6.42872 10.0547C6.54475 9.93628 6.70307 9.86881 6.86885 9.86712C7.03463 9.86544 7.19429 9.92968 7.3127 10.0457L8.75801 11.4633L12.6525 6.96602C12.7063 6.90395 12.7717 6.85307 12.845 6.81628C12.9184 6.77948 12.9983 6.7575 13.0802 6.75159C13.162 6.74568 13.2443 6.75595 13.3222 6.78182C13.4001 6.80768 13.4721 6.84864 13.5342 6.90235C13.5963 6.95606 13.6471 7.02147 13.6839 7.09484C13.7207 7.16821 13.7427 7.24812 13.7486 7.32998C13.7545 7.41185 13.7443 7.49408 13.7184 7.57198C13.6925 7.64988 13.6516 7.72192 13.5979 7.78399H13.5967Z" fill="#F2EAFF" fill-opacity="0.8"/>
</g>
</svg>
