<svg width="120" height="46" viewBox="0 0 120 46" fill="none" xmlns="http://www.w3.org/2000/svg">
<path d="M2.02356 3.78021H33.0556C44.3979 3.78021 49.4468 7.99411 49.4468 19.5168V28.0151C49.4468 39.1043 45.865 44.3465 34.5227 44.3465H2.02356V3.78021ZM12.86 35.5054H32.833C36.8802 35.5054 38.2664 32.8541 38.2664 28.5797V18.9623C38.2664 13.7202 36.5868 12.6415 32.7824 12.6415H12.86V35.5054Z" fill="#ABBFD4"/>
<path d="M34.0269 19.2145V28.8117C33.9655 29.5063 34.0986 30.2042 34.4114 30.828H23.0893C22.9124 29.9726 22.8309 29.1003 22.8465 28.227V19.7589C22.8414 18.9526 22.8989 18.1471 23.0185 17.3495H34.4013C34.1584 18.2871 34.0269 17.9544 34.0269 19.2145Z" fill="#6522D9"/>
<path d="M65.322 3.76026L72.779 13.0046V18.3577H61.9223V12.6316H53.5648C53.5648 8.59918 50.8532 5.75632 48.1112 3.75018L65.322 3.76026Z" fill="#6522D9"/>
<path d="M108.111 3.76019L80.4992 39.1751C79.2414 40.788 77.6304 42.0932 75.7892 42.9913C73.948 43.8893 71.9252 44.3563 69.8752 44.3567H48.7184C51.258 42.3405 53.6256 39.8606 53.6256 35.5257H62.6105C64.6569 35.5254 66.6764 35.0604 68.5156 34.1661C70.3547 33.2717 71.965 31.9715 73.2243 30.3642L93.9764 3.79044L108.111 3.76019Z" fill="#6522D9"/>
<path d="M100.644 21.5735L93.5717 30.6364L104.216 44.3467H118.411L100.644 21.5735Z" fill="#ABBFD4"/>
<path d="M72.3743 3.76019L80.2259 13.4884L87.2883 4.45579L86.4991 3.79044L72.3743 3.76019Z" fill="#ABBFD4"/>
</svg>
