<svg width="40" height="40" viewBox="0 0 40 40" fill="none" xmlns="http://www.w3.org/2000/svg">
<path d="M20 20C21.7306 20 23.4223 19.4868 24.8612 18.5254C26.3002 17.5639 27.4217 16.1973 28.0839 14.5985C28.7462 12.9996 28.9195 11.2403 28.5819 9.54296C28.2443 7.84563 27.4109 6.28653 26.1872 5.06282C24.9635 3.83911 23.4044 3.00575 21.707 2.66813C20.0097 2.33051 18.2504 2.50379 16.6515 3.16606C15.0527 3.82832 13.6861 4.94983 12.7246 6.38876C11.7632 7.82769 11.25 9.51942 11.25 11.25C11.25 13.5706 12.1719 15.7962 13.8128 17.4372C15.4538 19.0781 17.6794 20 20 20ZM20 22.5C14.5766 22.5 3.75 25.85 3.75 32.5V37.5H36.25V32.5C36.25 25.85 25.4234 22.5 20 22.5Z" fill="#6522D9"/>
</svg>
