<svg width="40" height="40" viewBox="0 0 40 40" fill="none" xmlns="http://www.w3.org/2000/svg">
<rect width="40" height="40" rx="10" fill="#29144B" fill-opacity="0.7"/>
<path d="M23.5356 9.39326L30.6067 16.4643C32.482 18.3397 33.5356 20.8832 33.5356 23.5354C33.5356 26.1876 32.482 28.7311 30.6067 30.6065C28.7313 32.4818 26.1878 33.5354 23.5356 33.5354C20.8834 33.5354 18.3399 32.4818 16.4645 30.6065L7.03644 21.1784C5.7862 19.9281 5.08382 18.2324 5.08382 16.4643C5.08382 14.6962 5.7862 13.0005 7.03644 11.7503C8.28669 10.5 9.98238 9.79766 11.7505 9.79766C13.5186 9.79767 15.2143 10.5 16.4645 11.7503L25.8926 21.1784C26.5177 21.8035 26.8689 22.6513 26.8689 23.5354C26.8689 24.4195 26.5177 25.2673 25.8926 25.8924C25.2675 26.5175 24.4197 26.8687 23.5356 26.8687C22.6515 26.8687 21.8037 26.5175 21.1786 25.8924L11.7505 16.4643" stroke="#6522D9" stroke-width="1.66667" stroke-linecap="round" stroke-linejoin="round"/>
</svg>
