<svg width="24" height="24" viewBox="0 0 24 24" fill="none" xmlns="http://www.w3.org/2000/svg">
<path d="M9.019 9.00001C8.91688 7.67573 9.2229 6.35194 9.89588 5.20684C10.5689 4.06174 11.5765 3.15029 12.7831 2.59517C13.9898 2.04006 15.3375 1.86792 16.645 2.10193C17.9524 2.33594 19.1568 2.96487 20.096 3.90406C21.0351 4.84324 21.6641 6.04761 21.8981 7.35505C22.1321 8.66249 21.96 10.0102 21.4048 11.2169C20.8497 12.4235 19.9383 13.4312 18.7932 14.1041C17.6481 14.7771 16.3243 15.0831 15 14.981" stroke="#F2EAFF" stroke-opacity="0.8" stroke-width="1.5" stroke-linecap="round" stroke-linejoin="round"/>
<path d="M22 17C22 17.7956 21.6839 18.5587 21.1213 19.1213C20.5587 19.6839 19.7956 20 19 20H17M17 20L19 18M17 20L19 22M2 7C2 6.20435 2.31607 5.44129 2.87868 4.87868C3.44129 4.31607 4.20435 4 5 4H7M7 4L5 6M7 4L5 2M8.5 22C6.77609 22 5.12279 21.3152 3.90381 20.0962C2.68482 18.8772 2 17.2239 2 15.5C2 13.7761 2.68482 12.1228 3.90381 10.9038C5.12279 9.68482 6.77609 9 8.5 9C10.2239 9 11.8772 9.68482 13.0962 10.9038C14.3152 12.1228 15 13.7761 15 15.5C15 17.2239 14.3152 18.8772 13.0962 20.0962C11.8772 21.3152 10.2239 22 8.5 22Z" stroke="#F2EAFF" stroke-opacity="0.8" stroke-width="1.5" stroke-linecap="round" stroke-linejoin="round"/>
</svg>
