<svg width="414" height="60" viewBox="0 0 414 60" fill="none" xmlns="http://www.w3.org/2000/svg">
<g clip-path="url(#clip0_14_232)">
<path d="M267.6 10.7999C265.965 11.3695 265.2 12.7383 265.2 14.3999C265.2 17.4539 268.8 18.6988 271.2 16.7999C272.055 16.1036 272.4 15.5867 272.4 14.3999C272.4 13.0073 271.23 11.4645 270 10.7999C269.355 10.4517 268.215 10.5783 267.6 10.7999Z" fill="#F2EAFF" fill-opacity="0.8"/>
<path d="M63.6 30V48H70.8C80.7134 47.9837 82.4454 48.1335 85.2 46.8C86.7535 46.052 88.0793 44.566 88.8 43.2C89.7769 41.3462 90.4484 38.1953 90 36C89.6477 34.325 88.7851 33.6034 87.6 32.4C86.4149 31.2129 85.4414 30.2764 84 30C82.5106 29.7073 82.8629 29.2065 84 28.8C86.3863 27.9869 88.0153 27.4116 88.8 25.2C89.2644 23.9153 89.2644 20.631 88.8 19.2C88.1434 17.1185 86.0339 15.392 84 14.4C81.4536 13.1641 79.8807 13.2 70.8 13.2H63.6V30ZM78 19.2C79.009 19.509 80.0156 20.7381 80.4 21.6C81.1367 23.2424 80.6414 25.343 79.2 26.4C77.9989 27.2944 77.8913 27.6 74.4 27.6H70.8V24V19.2H74.4C76.7703 19.2488 77.4235 19.0211 78 19.2ZM78 32.4C80.9949 32.7415 82.8 34.5656 82.8 37.2C82.8 38.4847 82.5449 39.9869 81.6 40.8C80.4309 41.8245 78.7562 41.9187 74.4 42H70.8V37.2V32.4H73.2C74.6734 32.4 77.2793 32.3024 78 32.4Z" fill="#F2EAFF" fill-opacity="0.8"/>
<path d="M93.6 30V48H97.2H100.8V30V13.2H97.2H93.6V30Z" fill="#F2EAFF" fill-opacity="0.8"/>
<path d="M159.6 30V48H163.2H166.8V44.4V39.6L168 38.4C168.442 37.8634 167.937 37.2 168 37.2C168.079 37.2 169.753 40.3868 171.6 43.2L175.2 48H180C182.289 48 183.6 48.0488 183.6 48C183.6 47.9513 181.484 44.8329 178.8 40.8L174 33.6L178.8 27.6C181.358 24.5266 183.6 21.6488 183.6 21.6C183.6 21.5513 181.026 21.6 178.8 21.6H175.2L171.6 26.4C169.453 29.0344 166.926 31.0862 166.8 31.2C166.595 31.3789 166.8 30.9797 166.8 22.8V13.2H163.2H159.6V30Z" fill="#F2EAFF" fill-opacity="0.8"/>
<path d="M211.2 30V48H214.8H218.4V39.6C218.448 32.1522 218.143 31.8667 218.4 31.2C219.301 28.8421 221.875 26.852 224.4 27.6C225.14 27.8114 226.205 28.1821 226.8 28.8C228.055 30.1172 228 30.0869 228 39.6V48H231.6H235.2V38.4C235.136 29.5536 235.522 28.7871 235.2 27.6C234.331 24.3802 232.112 22.6082 229.2 21.6C228.09 21.2097 227.289 21.5837 225.6 21.6C224.024 21.6 224.053 21.3073 223.2 21.6C221.254 22.283 219.301 23.4763 218.4 25.2V26.4V20.4V13.2H214.8H211.2V30Z" fill="#F2EAFF" fill-opacity="0.8"/>
<path d="M115.2 21.5998C112.337 21.9999 109.946 23.2796 108 25.1998C106.842 26.336 106.227 26.3357 105.6 27.5998C104.41 30.0481 104.4 31.5034 104.4 34.7998C104.4 38.0962 104.41 39.5515 105.6 41.9998C106.227 43.264 106.858 43.2637 108 44.3998C109.174 45.568 109.113 46.1758 110.4 46.7998C112.539 47.824 114.914 48.0158 117.6 47.9998C120.173 47.9678 121.525 47.808 123.6 46.7998C124.71 46.2558 124.874 45.536 126 44.3998C127.158 43.2477 127.789 43.248 128.4 41.9998C129.51 39.7116 129.6 37.7922 129.6 34.7998C129.6 31.8075 129.51 29.8881 128.4 27.5998C127.789 26.3517 127.158 26.352 126 25.1998C124.874 24.0637 124.71 23.3439 123.6 22.7998C122.844 22.4478 121.908 21.7759 121.2 21.5998C119.737 21.2318 116.68 21.3918 115.2 21.5998ZM118.8 27.5998C120.44 28.0799 121.821 30.0636 122.4 32.3998C122.545 32.9439 122.416 33.4717 122.4 34.7998C122.4 36.7201 121.586 37.2797 121.2 38.3998C120.235 41.1362 118.764 41.9998 116.4 41.9998C113.216 41.9998 111.6 39.3604 111.6 34.7998C111.6 29.4392 114.973 26.4637 118.8 27.5998Z" fill="#F2EAFF" fill-opacity="0.8"/>
<path d="M142.8 21.5999C141.255 21.7915 139.37 22.1455 138 22.7999C136.726 23.4224 136.763 24.0347 135.6 25.1999C134.469 26.3332 133.821 26.3389 133.2 27.5999C132.228 29.5952 132.112 31.2056 132 33.5999C131.713 39.5537 133.603 44.5972 138 46.7999C141.616 48.6196 147.504 48.6036 151.2 46.7999C152.873 45.9859 154.035 43.628 154.8 41.9999C155.358 40.8028 155.857 39.645 156 38.3999V38.3999H152.4H148.8V38.3999C147.956 41.289 145.556 43.1971 142.8 41.9999C140.713 41.106 139.2 38.3116 139.2 34.7999C139.2 31.2723 140.649 28.6694 142.8 27.5999C143.756 27.137 144.021 27.5361 145.2 27.5999C146.251 27.6638 145.763 27.2168 146.4 27.5999C147.372 28.2065 148.481 28.8985 148.8 29.9999V31.1999H152.4H156V29.9999C155.506 25.8817 151.869 22.7013 147.6 21.5999C146.421 21.3126 143.899 21.4722 142.8 21.5999Z" fill="#F2EAFF" fill-opacity="0.8"/>
<path d="M194.4 21.5999C189.105 22.3359 184.78 25.76 183.6 31.1999C183.249 32.8799 183.233 36.784 183.6 38.3999C184.669 43.2799 187.455 46.8 192 47.9999C193.818 48.4959 197.43 48.4799 199.2 47.9999C203.283 46.896 206.819 43.4879 207.6 39.5999C208.031 37.504 207.939 38.3999 204 38.3999H200.4V38.3999C200.272 39.1359 199.758 40.128 199.2 40.7999C198.036 42.1919 196.186 42.8799 194.4 41.9999C192.263 40.944 190.784 38.4319 190.8 34.7999C190.8 31.936 191.86 30.2559 193.2 28.7999C194.125 27.792 194.165 27.6959 195.6 27.5999C196.605 27.5359 197.314 27.2959 198 27.5999C199.148 28.0959 200.033 28.784 200.4 29.9999V31.1999H204H207.6V29.9999C207.329 27.728 205.627 25.4399 204 23.9999C202.963 23.072 200.715 21.9359 199.2 21.5999C197.749 21.28 195.772 21.4079 194.4 21.5999Z" fill="#F2EAFF" fill-opacity="0.8"/>
<path d="M248.4 21.5999C245.006 22.1435 242.522 24.1136 241.2 26.3999C240.786 27.1034 240 28.4801 240 28.7999C240 28.8639 240.886 29.888 242.4 29.9999C243.898 30.1118 245.681 29.9519 246 29.9999C246.526 30.0798 245.713 29.4394 246 28.7999C246.637 27.3769 248.777 26.3839 250.8 26.3999C252.887 26.3999 254.193 28.2891 254.4 29.9999C254.512 30.9592 253.981 30.8002 253.2 31.1999C252.69 31.4717 251.353 32.224 249.6 32.3999C246.27 32.7197 243.977 32.7525 242.4 33.5999C241.189 34.2554 240.765 34.9926 240 35.9999C238.502 37.9825 238.646 42.0976 240 44.3999C241.354 46.7342 243.679 47.9839 247.2 47.9999C249.128 48.0159 250.662 47.4714 252 46.7999C252.797 46.3842 253.89 45.1673 254.4 44.3999C254.639 44.0162 254.4 43.9531 254.4 45.5999V47.9999H258H261.6V38.3999C261.6 28.4231 261.213 28.1586 260.4 26.3999C259.858 25.2168 258.218 23.4874 256.8 22.7999C254.235 21.5688 251.539 21.1202 248.4 21.5999ZM254.4 37.1999C254.4 39.2464 254.299 40.9926 253.2 41.9999C252.069 43.0072 251.353 43.1999 249.6 43.1999C248.341 43.1999 247.758 42.2877 247.2 41.9999C246.324 41.5202 246.096 41.7592 246 40.7999C245.904 39.8246 246.435 39.1034 247.2 38.3999C247.965 37.7124 247.932 37.6796 250.8 37.1999C252.075 36.9761 252.977 36.0958 253.2 35.9999C253.423 35.92 254.32 35.9999 254.4 35.9999C254.464 35.9839 254.4 36.2566 254.4 37.1999Z" fill="#F2EAFF" fill-opacity="0.8"/>
<path d="M290.4 21.6C290.222 21.6325 289.686 21.5026 289.2 21.6C288.002 21.8435 286.426 23.1559 285.6 24C285.244 24.3733 284.708 24.6806 284.4 25.2V26.4V24V21.6H280.8H277.2V34.8V48H280.8H284.4V39.6C284.449 31.354 284.044 30.7467 284.4 30C285.42 27.8087 287.922 26.8696 290.4 27.6C291.048 27.7948 292.233 28.2156 292.8 28.8C294.063 30.1148 294 30.1041 294 39.6V48H297.6H301.2V38.4C301.119 28.125 301.085 28.6563 300 26.4C299.417 25.1664 298.669 23.4818 297.6 22.8C296.483 22.102 294.387 21.6812 292.8 21.6C292.023 21.5675 290.578 21.5513 290.4 21.6Z" fill="#F2EAFF" fill-opacity="0.8"/>
<path d="M265.2 34.8V48H268.8H272.4V34.8V21.6H268.8H265.2V34.8Z" fill="#F2EAFF" fill-opacity="0.8"/>
<path d="M33.6 27.5999C29.4235 29.5795 26.5165 31.0891 26.4 31.1999C26.2669 31.295 26.4499 31.2633 26.4 31.1999C26.3334 31.1524 25.2 31.1049 25.2 31.1999C25.2 31.3108 25.2998 31.2316 25.2 31.1999C25.0336 31.1841 25.2666 34.0501 25.2 41.9999C25.1168 51.6443 24.784 52.1542 25.2 51.5999C25.2666 51.5208 26.3334 51.6158 26.4 51.5999C26.5997 51.5999 37.2 40.9741 37.2 40.7999C37.2 40.6099 38.167 39.5999 38.4 39.5999C38.2835 39.8216 38.4832 39.5999 38.4 39.5999C38.5165 39.3782 38.2003 38.5741 38.4 38.3999H39.6H38.4V39.5999V38.3999C38.6163 38.2416 39.6499 38.4633 39.6 38.3999C39.5667 38.3366 40.6356 37.2668 42 35.9999C43.3644 34.7172 44.1338 34.0117 44.4 33.5999C44.6496 33.1724 45.5334 32.4316 45.6 32.3999C45.6499 32.5266 45.6666 32.3683 45.6 32.3999C45.5501 32.2732 45.5334 31.1999 45.6 31.1999C45.8329 31.1999 45.8163 28.9266 45.6 28.7999C45.5168 28.7524 45.5334 28.8791 45.6 28.7999C45.6499 28.7208 45.6998 28.9266 45.6 28.7999C45.4835 28.6732 45.5334 27.5999 45.6 27.5999C45.6666 27.5999 45.6998 27.7108 45.6 27.5999C45.5002 27.4732 45.5334 27.6474 45.6 27.5999C45.6499 27.5366 45.7165 27.5999 45.6 27.5999C45.4835 27.5999 44.3501 27.6791 44.4 27.5999C44.4499 27.5049 44.4832 27.5999 44.4 27.5999C44.3002 27.5999 44.4 26.495 44.4 26.3999C44.4 26.3049 44.5997 26.5741 44.4 26.3999C44.1837 26.2257 44.2669 26.3366 44.4 26.3999C44.5331 26.4633 43.8489 25.8334 43.2 25.1999C42.5677 24.5665 42.1331 24.0633 42 23.9999C41.8336 23.9049 38.7249 25.1928 33.6 27.5999Z" fill="#1540C1"/>
<path d="M328.8 21.6002C325.79 21.9673 322.152 24.2135 320.4 26.4002C319.556 27.4536 318.35 28.6594 318 30.0002C317.347 32.6338 317.299 37.0783 318 39.6002C318.94 42.9839 322.254 45.4116 325.2 46.8002C328.035 48.1409 331.694 47.7898 334.8 46.8002C338.543 45.619 341.251 43.2872 342 39.6002C342.43 37.4933 342.286 38.3523 338.4 38.4002H334.8V39.6002C334.179 41.6432 332.07 42.2236 330 42.0002C327.308 41.7288 325.646 39.5276 325.2 36.0002C324.674 31.9301 326.268 28.7653 328.8 27.6002C329.533 27.265 330.053 27.5363 331.2 27.6002C332.363 27.664 332.867 27.1213 333.6 27.6002C334.556 28.2227 334.513 30.051 334.8 31.2002V31.2002H338.4H342V31.2002C341.204 25.087 335.903 20.7702 328.8 21.6002Z" fill="#C1C1C1"/>
<path d="M355.2 21.6001C349.848 22.1427 345.835 24.8614 344.4 30.0001C344.094 31.0853 344.4 32.1669 344.4 34.8001C344.4 37.6567 343.965 38.2436 344.4 39.6001C345.48 43.0951 347.369 45.2681 350.4 46.8001C353.882 48.5556 360.069 48.5556 363.6 46.8001C366.631 45.3 368.552 43.0791 369.6 39.6001C369.955 38.4511 369.519 37.9311 369.6 36.0001C369.681 33.3829 368.996 31.7556 368.4 30.0001C367.32 26.8562 366.437 24.2204 363.6 22.8001C361.44 21.7309 357.86 21.3288 355.2 21.6001ZM358.8 27.6001C360.477 28.0948 361.836 30.0542 362.4 32.4001C362.739 33.8364 362.755 35.8915 362.4 37.2001C361.868 39.2269 360.17 41.2979 358.8 42.0001C358.075 42.3672 357.319 42.1916 356.4 42.0001C353.579 41.4256 351.616 39.0132 351.6 34.8001C351.6 30.5232 352.492 28.43 355.2 27.6001C355.877 27.4086 357.929 27.3448 358.8 27.6001Z" fill="#C1C1C1"/>
<path d="M386.4 21.6C384.256 21.973 381.44 23.1888 380.4 25.2V26.4V24V21.6H376.8H373.2V34.8V48H376.8H380.4V39.6V31.2V30C381.248 28.2808 383.312 27.4702 385.2 27.6C386.64 27.7135 386.944 28.7349 387.6 30H388.8V39.6V48H391.2H394.8V39.6C394.848 30.0308 394.88 30.0002 396 28.8C396.736 28.0215 398.448 27.6 399.6 27.6C401.36 27.6 402.528 28.6052 403.2 30V30V39.6V48H406.8H410.4V38.4C410.384 28.1172 410.112 28.4598 409.2 26.4C408.72 25.2971 407.824 23.3514 406.8 22.8C404.336 21.4376 401.008 21.47 398.4 22.8C397.312 23.3677 395.328 24.162 394.8 25.2C394.544 25.6866 394.848 26.4162 394.8 26.4C394.752 26.4 393.856 25.7514 393.6 25.2C392.944 23.8214 392.576 23.4812 391.2 22.8C389.536 21.9566 388.352 21.2756 386.4 21.6Z" fill="#C1C1C1"/>
<path d="M308.4 39.6001C307.114 40.0235 306.451 40.7807 306 42.0001C305.599 43.1009 305.649 44.567 306 45.6001C306.618 47.4461 308.83 48.1356 310.8 48.0001C312.019 47.8985 312.432 47.5791 313.2 46.8001C315.27 44.7001 314.638 40.8872 312 39.6001C311.332 39.2614 309.068 39.3799 308.4 39.6001Z" fill="#C1C1C1"/>
<path d="M2.4 25.2C0.368437 27.2455 3.20605e-06 27.7746 3.20605e-06 30C3.20605e-06 32.8146 -0.192521 32.291 8.4 40.8C20.1897 52.4672 20.017 52.8 20.4 52.8C20.4833 52.8 20.4 47.7436 20.4 42V32.4L12 27.6C7.52057 25.391 3.66661 24 3.6 24C3.51674 24 3.21596 24.3819 2.4 25.2Z" fill="#4096EC"/>
<path d="M21.6 8.4001C21.2372 8.52657 20.7628 9.41039 20.4 9.6001C19.7568 9.91628 8.25158 20.2578 8.4 20.4001C8.44947 20.4317 11.5266 22.0398 15.6 24.0001L22.8 27.6001L31.2 24.0001C35.3228 22.0556 38.367 20.4317 38.4 20.4001C38.4495 20.3527 35.5169 17.4038 32.4 14.4001C25.8529 8.12399 26.3913 8.49495 24 8.4001C23.1754 8.36848 21.9958 8.27363 21.6 8.4001Z" fill="#96C1EC"/>
</g>
<defs>
<clipPath id="clip0_14_232">
<rect width="414" height="60" fill="white"/>
</clipPath>
</defs>
</svg>
