<svg width="164" height="60" viewBox="0 0 164 60" fill="none" xmlns="http://www.w3.org/2000/svg">
<g clip-path="url(#clip0_18_1487)">
<path d="M18.3525 58.5365H0.0598145V14.634H17.6208C26.0951 14.634 30.7915 19.5516 30.7915 27.0731C30.7915 31.9475 27.8639 34.8043 25.6696 35.8535C28.2948 37.0882 31.5232 40.2385 31.5232 46.0974C31.5232 54.297 26.0926 58.5365 18.3525 58.5365ZM16.8891 21.9511H8.8403V32.195H16.8891C20.4879 32.195 22.7427 30.0995 22.7427 27.0731C22.7427 24.0548 20.4879 21.9511 16.8891 21.9511ZM17.6208 40.2438H8.8403V51.2194H17.6208C21.459 51.2194 22.7427 48.3195 22.7427 45.3657C22.7427 42.4038 21.459 40.2438 17.6208 40.2438Z" fill="#F2EAFF" fill-opacity="0.8"/>
<path d="M57.133 40.2438V58.5365H49.0842V40.2438L35.9135 14.634H45.4256L53.4744 32.195L60.7915 14.634H70.3037L57.133 40.2438Z" fill="#F2EAFF" fill-opacity="0.8"/>
<path d="M94.45 58.5365H76.1573V14.634H93.7183C102.193 14.634 106.889 19.5516 106.889 27.0731C106.889 31.9475 103.961 34.8043 101.767 35.8535C104.392 37.0882 107.621 40.2385 107.621 46.0974C107.621 54.297 102.19 58.5365 94.45 58.5365ZM92.9866 21.9511H84.9378V32.195H92.9866C96.5856 32.195 98.8403 30.0995 98.8403 27.0731C98.8403 24.0548 96.5856 21.9511 92.9866 21.9511ZM93.7183 40.2438H84.9378V51.2194H93.7183C97.5564 51.2194 98.8403 48.3195 98.8403 45.3657C98.8325 42.4038 97.5564 40.2438 93.7183 40.2438Z" fill="#F2EAFF" fill-opacity="0.8"/>
<path d="M125.182 1.46338H116.401V45.3658H125.182V1.46338Z" fill="#F7A600"/>
<path d="M152.255 21.9511V58.5365H143.474V21.9511H132.499V14.634H163.231V21.9511H152.255Z" fill="#F2EAFF" fill-opacity="0.8"/>
</g>
<defs>
<clipPath id="clip0_18_1487">
<rect width="163.171" height="60" fill="white" transform="translate(0.0598145)"/>
</clipPath>
</defs>
</svg>
