<svg width="238" height="60" viewBox="0 0 238 60" fill="none" xmlns="http://www.w3.org/2000/svg">
<g id="horizontal_white 1" clip-path="url(#clip0_53_266)">
<path id="Vector" d="M79.635 23.9669H73.1588V20.15H90.7944V23.9669H84.3181V40.3888H79.635V23.9669ZM95.2312 26.8869C95.7706 26.135 96.4937 25.5663 97.3994 25.1807C98.3244 24.7957 99.3844 24.6025 100.579 24.6025V28.7663C100.079 28.7275 99.7413 28.7082 99.5675 28.7082C98.2763 28.7082 97.2644 29.0744 96.5319 29.8069C95.7994 30.52 95.4331 31.5994 95.4331 33.045V40.3888H90.9231V24.8338H95.2312V26.8869ZM117.31 24.8338V40.3888H113.031V38.5382C112.433 39.2125 111.72 39.7332 110.891 40.0994C110.062 40.4463 109.166 40.62 108.202 40.62C106.159 40.62 104.541 40.0319 103.346 38.8563C102.151 37.6807 101.553 35.9363 101.553 33.6232V24.8338H106.063V32.9582C106.063 35.4638 107.114 36.7169 109.214 36.7169C110.294 36.7169 111.161 36.37 111.817 35.6757C112.472 34.9625 112.799 33.9125 112.799 32.5244V24.8338H117.31ZM124.987 40.62C123.695 40.62 122.432 40.4657 121.199 40.1575C119.966 39.8294 118.982 39.425 118.25 38.9432L119.754 35.705C120.447 36.1482 121.286 36.5144 122.269 36.8032C123.252 37.0732 124.216 37.2082 125.16 37.2082C127.068 37.2082 128.022 36.7363 128.022 35.7913C128.022 35.3482 127.762 35.03 127.242 34.8375C126.721 34.645 125.921 34.4807 124.842 34.3457C123.57 34.1532 122.519 33.9313 121.691 33.6813C120.862 33.4307 120.139 32.9869 119.522 32.3513C118.925 31.715 118.626 30.8094 118.626 29.6332C118.626 28.6507 118.906 27.7832 119.464 27.0313C120.042 26.26 120.871 25.6625 121.951 25.2388C123.049 24.815 124.341 24.6025 125.825 24.6025C126.924 24.6025 128.013 24.7282 129.092 24.9788C130.191 25.21 131.097 25.5375 131.81 25.9613L130.306 29.1707C128.938 28.4 127.444 28.0144 125.825 28.0144C124.861 28.0144 124.139 28.1494 123.657 28.4188C123.175 28.6888 122.934 29.0357 122.934 29.46C122.934 29.9419 123.194 30.2788 123.714 30.4719C124.235 30.6644 125.064 30.8475 126.201 31.0213C127.473 31.2332 128.514 31.4644 129.323 31.715C130.133 31.9463 130.836 32.38 131.434 33.0163C132.031 33.6519 132.33 34.5388 132.33 35.6757C132.33 36.6394 132.041 37.4975 131.463 38.2488C130.884 39.0007 130.036 39.5888 128.919 40.0125C127.82 40.4175 126.509 40.62 124.987 40.62ZM143.411 39.6369C142.967 39.9644 142.418 40.215 141.763 40.3888C141.127 40.5425 140.452 40.62 139.739 40.62C137.889 40.62 136.453 40.1475 135.431 39.2032C134.429 38.2588 133.927 36.8707 133.927 35.04V28.6507H131.528V25.1807H133.927V21.3938H138.438V25.1807H142.312V28.6507H138.438V34.9819C138.438 35.6375 138.602 36.1482 138.929 36.5144C139.276 36.8613 139.758 37.035 140.375 37.035C141.088 37.035 141.695 36.8419 142.196 36.4563L143.411 39.6369ZM181.567 20.15L174.947 40.3888H169.916L165.464 26.6844L160.867 40.3888H155.865L149.216 20.15H154.072L158.641 34.375L163.411 20.15H167.747L172.374 34.4907L177.086 20.15H181.567ZM187.246 24.6025C189.655 24.6025 191.506 25.1807 192.797 26.3375C194.088 27.4744 194.734 29.1994 194.734 31.5125V40.3888H190.513V38.4513C189.665 39.8969 188.084 40.62 185.771 40.62C184.576 40.62 183.536 40.4175 182.649 40.0125C181.781 39.6082 181.116 39.0488 180.654 38.3357C180.191 37.6225 179.96 36.8132 179.96 35.9069C179.96 34.4619 180.5 33.3244 181.579 32.4957C182.678 31.6669 184.364 31.2525 186.639 31.2525H190.224C190.224 30.2694 189.925 29.5175 189.327 28.9975C188.73 28.4575 187.834 28.1875 186.639 28.1875C185.81 28.1875 184.991 28.3225 184.181 28.5925C183.391 28.8432 182.716 29.19 182.158 29.6332L180.538 26.4819C181.386 25.8844 182.398 25.4219 183.574 25.0944C184.769 24.7663 185.993 24.6025 187.246 24.6025ZM186.899 37.5838C187.67 37.5838 188.354 37.4107 188.952 37.0638C189.549 36.6975 189.973 36.1675 190.224 35.4738V33.8832H187.13C185.28 33.8832 184.354 34.4907 184.354 35.705C184.354 36.2832 184.576 36.7457 185.019 37.0925C185.482 37.42 186.109 37.5838 186.899 37.5838ZM197.081 18.9363H201.591V40.3888H197.081V18.9363ZM204.042 18.9363H208.553V40.3888H204.042V18.9363ZM226.241 32.6688C226.241 32.7269 226.212 33.1319 226.154 33.8832H214.387C214.599 34.8469 215.1 35.6082 215.89 36.1675C216.681 36.7263 217.663 37.0057 218.839 37.0057C219.649 37.0057 220.362 36.89 220.979 36.6588C221.614 36.4082 222.202 36.0232 222.742 35.5025L225.142 38.1044C223.677 39.7813 221.538 40.62 218.724 40.62C216.969 40.62 215.418 40.2825 214.069 39.6082C212.719 38.9138 211.679 37.96 210.946 36.7457C210.214 35.5313 209.847 34.1532 209.847 32.6113C209.847 31.0888 210.204 29.72 210.917 28.5057C211.65 27.2725 212.643 26.3182 213.895 25.6438C215.167 24.9494 216.584 24.6025 218.145 24.6025C219.668 24.6025 221.046 24.9307 222.279 25.5857C223.513 26.2413 224.477 27.1857 225.171 28.4188C225.884 29.6332 226.241 31.05 226.241 32.6688ZM218.174 28.0144C217.152 28.0144 216.295 28.3032 215.601 28.8819C214.907 29.46 214.483 30.25 214.329 31.2525H221.991C221.836 30.2694 221.412 29.4888 220.718 28.9107C220.024 28.3132 219.176 28.0144 218.174 28.0144ZM237.541 39.6369C237.097 39.9644 236.548 40.215 235.893 40.3888C235.257 40.5425 234.582 40.62 233.869 40.62C232.019 40.62 230.583 40.1475 229.561 39.2032C228.559 38.2588 228.058 36.8707 228.058 35.04V28.6507H225.658V25.1807H228.058V21.3938H232.568V25.1807H236.442V28.6507H232.568V34.9819C232.568 35.6375 232.732 36.1482 233.059 36.5144C233.406 36.8613 233.888 37.035 234.505 37.035C235.218 37.035 235.826 36.8419 236.327 36.4563L237.541 39.6369Z" fill="white"/>
<path id="Vector_2" d="M40.1888 0H20.5928C9.35779 0 0.25 9.10779 0.25 20.3428V39.9387C0.25 51.1738 9.35779 60.2816 20.5928 60.2816H40.1888C51.4238 60.2816 60.5316 51.1738 60.5316 39.9387V20.3428C60.5316 9.10779 51.4238 0 40.1888 0Z" fill="white"/>
<path id="Vector_3" d="M0.875 30.3125C0.875 13.9166 14.1666 0.625 30.5625 0.625C46.9587 0.625 60.25 13.9166 60.25 30.3125C60.25 46.7087 46.9587 60 30.5625 60C14.1666 60 0.875 46.7087 0.875 30.3125Z" fill="white"/>
<path id="Vector_4" d="M30.58 12.5696C36.5706 17.5731 43.4406 17.2644 45.4037 17.2644C44.9744 45.7194 41.7025 40.0769 30.58 48.0556C19.457 40.0769 16.2061 45.7194 15.7767 17.2644C17.7191 17.2644 24.5891 17.5731 30.58 12.5696Z" stroke="#3375BB" stroke-width="6.06304" stroke-miterlimit="10" stroke-linecap="round" stroke-linejoin="round"/>
</g>
<defs>
<clipPath id="clip0_53_266">
<rect width="237.5" height="60" fill="white" transform="translate(0.25)"/>
</clipPath>
</defs>
</svg>
