<svg width="326" height="60" viewBox="0 0 326 60" fill="none" xmlns="http://www.w3.org/2000/svg">
<g clip-path="url(#clip0_53_220)">
<path d="M287.987 30.1751C286.291 29.0501 284.421 28.2501 282.65 27.2501C281.502 26.6001 280.28 26.0251 279.282 25.2001C277.586 23.8001 277.935 21.0501 279.706 19.8501C282.251 18.1501 286.466 19.1001 286.915 22.5751C286.915 22.6501 286.99 22.7001 287.064 22.7001H290.906C291.005 22.7001 291.08 22.6251 291.055 22.5251C290.856 20.1251 289.933 18.1251 288.237 16.8501C286.615 15.6251 284.77 14.9751 282.799 14.9751C272.648 14.9751 271.725 25.7501 277.187 29.1501C277.811 29.5501 283.173 32.2501 285.069 33.4251C286.965 34.6001 287.563 36.7501 286.74 38.4501C285.992 40.0001 284.046 41.0751 282.101 40.9501C279.981 40.8251 278.335 39.6751 277.761 37.8751C277.661 37.5501 277.611 36.9251 277.611 36.6501C277.611 36.5751 277.536 36.5001 277.462 36.5001H273.296C273.221 36.5001 273.146 36.5751 273.146 36.6501C273.146 39.6751 273.895 41.3501 275.94 42.8751C277.861 44.3251 279.956 44.9251 282.126 44.9251C287.813 44.9251 290.756 41.7001 291.355 38.3501C291.878 35.0751 290.906 32.1251 287.987 30.1751Z" fill="#F2EAFF" fill-opacity="0.8"/>
<path d="M107.128 15.5251H105.283H103.262C103.188 15.5251 103.138 15.5751 103.113 15.6251L99.6956 26.9251C99.6457 27.0751 99.4462 27.0751 99.3963 26.9251L95.9791 15.6251C95.9542 15.5501 95.9043 15.5251 95.8295 15.5251H93.8091H91.9634H89.4691C89.3943 15.5251 89.3195 15.6001 89.3195 15.6751V44.5252C89.3195 44.6001 89.3943 44.6752 89.4691 44.6752H93.6345C93.7094 44.6752 93.7842 44.6001 93.7842 44.5252V22.6001C93.7842 22.4251 94.0336 22.4001 94.0835 22.5501L97.5256 33.9251L97.775 34.7251C97.7999 34.8001 97.8498 34.8251 97.9247 34.8251H101.117C101.192 34.8251 101.242 34.7751 101.267 34.7251L101.516 33.9251L104.958 22.5501C105.008 22.3751 105.258 22.4251 105.258 22.6001V44.5252C105.258 44.6001 105.333 44.6752 105.407 44.6752H109.573C109.648 44.6752 109.723 44.6001 109.723 44.5252V15.6751C109.723 15.6001 109.648 15.5251 109.573 15.5251H107.128Z" fill="#F2EAFF" fill-opacity="0.8"/>
<path d="M224.209 15.5251C224.134 15.5251 224.084 15.5751 224.059 15.6251L220.642 26.9251C220.592 27.0751 220.393 27.0751 220.343 26.9251L216.926 15.6251C216.901 15.5501 216.851 15.5251 216.776 15.5251H210.441C210.366 15.5251 210.291 15.6001 210.291 15.6751V44.5252C210.291 44.6001 210.366 44.6752 210.441 44.6752H214.606C214.681 44.6752 214.756 44.6001 214.756 44.5252V22.6001C214.756 22.4251 215.005 22.4001 215.055 22.5501L218.497 33.9251L218.747 34.7251C218.772 34.8001 218.822 34.8251 218.896 34.8251H222.089C222.164 34.8251 222.214 34.7751 222.239 34.7251L222.488 33.9251L225.93 22.5501C225.98 22.3751 226.229 22.4251 226.229 22.6001V44.5252C226.229 44.6001 226.304 44.6752 226.379 44.6752H230.545C230.619 44.6752 230.694 44.6001 230.694 44.5252V15.6751C230.694 15.6001 230.619 15.5251 230.545 15.5251H224.209Z" fill="#F2EAFF" fill-opacity="0.8"/>
<path d="M170.483 15.5251H162.726H158.56H150.803C150.728 15.5251 150.653 15.6001 150.653 15.6751V19.2751C150.653 19.3501 150.728 19.4251 150.803 19.4251H158.41V44.5252C158.41 44.6001 158.485 44.6752 158.56 44.6752H162.726C162.8 44.6752 162.875 44.6001 162.875 44.5252V19.4251H170.483C170.558 19.4251 170.632 19.3501 170.632 19.2751V15.6751C170.632 15.6001 170.582 15.5251 170.483 15.5251Z" fill="#F2EAFF" fill-opacity="0.8"/>
<path d="M195.051 44.6751H198.842C198.942 44.6751 199.017 44.575 198.992 44.475L191.16 15.5251C191.135 15.4501 191.085 15.425 191.011 15.425H189.564H187.02H185.573C185.498 15.425 185.448 15.4751 185.423 15.5251L177.591 44.475C177.566 44.575 177.641 44.6751 177.741 44.6751H181.532C181.607 44.6751 181.657 44.625 181.682 44.575L183.952 36.15C183.977 36.0751 184.027 36.0501 184.101 36.0501H192.482C192.557 36.0501 192.607 36.1 192.632 36.15L194.902 44.575C194.927 44.625 195.001 44.6751 195.051 44.6751ZM185.099 31.925L188.142 20.6501C188.192 20.5001 188.392 20.5001 188.441 20.6501L191.484 31.925C191.509 32.025 191.435 32.125 191.335 32.125H185.249C185.149 32.125 185.074 32.025 185.099 31.925Z" fill="#F2EAFF" fill-opacity="0.8"/>
<path d="M259.702 44.6751H263.494C263.594 44.6751 263.668 44.575 263.643 44.475L255.811 15.5251C255.786 15.4501 255.737 15.425 255.662 15.425H254.215H251.671H250.224C250.149 15.425 250.1 15.4751 250.075 15.5251L242.243 44.475C242.218 44.575 242.293 44.6751 242.392 44.6751H246.184C246.258 44.6751 246.308 44.625 246.333 44.575L248.603 36.15C248.628 36.0751 248.678 36.0501 248.753 36.0501H257.133C257.208 36.0501 257.258 36.1 257.283 36.15L259.553 44.575C259.578 44.625 259.628 44.6751 259.702 44.6751ZM249.75 31.925L252.793 20.6501C252.843 20.5001 253.043 20.5001 253.093 20.6501L256.136 31.925C256.161 32.025 256.086 32.125 255.986 32.125H249.9C249.8 32.125 249.725 32.025 249.75 31.925Z" fill="#F2EAFF" fill-opacity="0.8"/>
<path d="M126.634 40.4001V31.4501C126.634 31.3751 126.708 31.3001 126.783 31.3001H137.883C137.957 31.3001 138.032 31.2251 138.032 31.1501V27.5501C138.032 27.475 137.957 27.4001 137.883 27.4001H126.783C126.708 27.4001 126.634 27.3251 126.634 27.2501V19.6C126.634 19.525 126.708 19.4501 126.783 19.4501H139.404C139.479 19.4501 139.554 19.375 139.554 19.3V15.7001C139.554 15.6251 139.479 15.55 139.404 15.55H126.634H122.318C122.244 15.55 122.169 15.6251 122.169 15.7001V19.4501V27.425V31.3251V40.5751V44.5251C122.169 44.6001 122.244 44.6751 122.318 44.6751H126.634H139.928C140.003 44.6751 140.078 44.6001 140.078 44.5251V40.7251C140.078 40.6501 140.003 40.5751 139.928 40.5751H126.758C126.683 40.55 126.634 40.5001 126.634 40.4001Z" fill="#F2EAFF" fill-opacity="0.8"/>
<path d="M326.05 44.4251L311.633 29.5001C311.583 29.4501 311.583 29.3501 311.633 29.3001L324.603 15.8C324.703 15.7 324.628 15.55 324.503 15.55H319.191C319.141 15.55 319.116 15.575 319.091 15.6L308.091 27.05C307.991 27.1501 307.842 27.0751 307.842 26.9501V15.7001C307.842 15.6251 307.767 15.55 307.692 15.55H303.527C303.452 15.55 303.377 15.6251 303.377 15.7001V44.5501C303.377 44.6251 303.452 44.7001 303.527 44.7001H307.692C307.767 44.7001 307.842 44.6251 307.842 44.5501V31.85C307.842 31.725 308.016 31.6501 308.091 31.7501L320.562 44.6501C320.587 44.6751 320.637 44.7001 320.662 44.7001H325.975C326.075 44.6751 326.15 44.5001 326.05 44.4251Z" fill="#F2EAFF" fill-opacity="0.8"/>
<path d="M60.86 0L35.643 18.75L40.3322 7.7L60.86 0Z" fill="#E17726" stroke="#E17726" stroke-linecap="round" stroke-linejoin="round"/>
<path d="M2.69385 0L27.6863 18.925L23.2216 7.7L2.69385 0Z" fill="#E27625" stroke="#E27625" stroke-linecap="round" stroke-linejoin="round"/>
<path d="M51.7809 43.4751L45.0714 53.7751L59.4383 57.7501L63.5538 43.7001L51.7809 43.4751Z" fill="#E27625" stroke="#E27625" stroke-linecap="round" stroke-linejoin="round"/>
<path d="M0.0249634 43.7001L4.11555 57.7501L18.4576 53.7751L11.7729 43.4751L0.0249634 43.7001Z" fill="#E27625" stroke="#E27625" stroke-linecap="round" stroke-linejoin="round"/>
<path d="M17.6844 26.0749L13.6935 32.1249L27.9108 32.7749L27.4369 17.3999L17.6844 26.0749Z" fill="#E27625" stroke="#E27625" stroke-linecap="round" stroke-linejoin="round"/>
<path d="M45.8695 26.0751L35.9673 17.2251L35.643 32.7751L49.8603 32.1251L45.8695 26.0751Z" fill="#E27625" stroke="#E27625" stroke-linecap="round" stroke-linejoin="round"/>
<path d="M18.4576 53.775L27.0628 49.6L19.6548 43.8L18.4576 53.775Z" fill="#E27625" stroke="#E27625" stroke-linecap="round" stroke-linejoin="round"/>
<path d="M36.4911 49.6L45.0714 53.775L43.899 43.8L36.4911 49.6Z" fill="#E27625" stroke="#E27625" stroke-linecap="round" stroke-linejoin="round"/>
<path d="M45.0713 53.7751L36.491 49.6001L37.1894 55.2001L37.1146 57.5751L45.0713 53.7751Z" fill="#D5BFB2" stroke="#D5BFB2" stroke-linecap="round" stroke-linejoin="round"/>
<path d="M18.4575 53.7751L26.4392 57.5751L26.3893 55.2001L27.0627 49.6001L18.4575 53.7751Z" fill="#D5BFB2" stroke="#D5BFB2" stroke-linecap="round" stroke-linejoin="round"/>
<path d="M26.5889 40.1L19.4553 38L24.4937 35.675L26.5889 40.1Z" fill="#233447" stroke="#233447" stroke-linecap="round" stroke-linejoin="round"/>
<path d="M36.965 40.1L39.0601 35.675L44.1235 38L36.965 40.1Z" fill="#233447" stroke="#233447" stroke-linecap="round" stroke-linejoin="round"/>
<path d="M18.4576 53.7751L19.7047 43.4751L11.7729 43.7001L18.4576 53.7751Z" fill="#CC6228" stroke="#CC6228" stroke-linecap="round" stroke-linejoin="round"/>
<path d="M43.8491 43.4751L45.0713 53.7751L51.7809 43.7001L43.8491 43.4751Z" fill="#CC6228" stroke="#CC6228" stroke-linecap="round" stroke-linejoin="round"/>
<path d="M49.8603 32.125L35.643 32.775L36.965 40.1L39.0601 35.675L44.1235 38L49.8603 32.125Z" fill="#CC6228" stroke="#CC6228" stroke-linecap="round" stroke-linejoin="round"/>
<path d="M19.4553 38L24.4937 35.675L26.5889 40.1L27.9108 32.775L13.6935 32.125L19.4553 38Z" fill="#CC6228" stroke="#CC6228" stroke-linecap="round" stroke-linejoin="round"/>
<path d="M13.6935 32.125L19.6548 43.8L19.4552 38L13.6935 32.125Z" fill="#E27525" stroke="#E27525" stroke-linecap="round" stroke-linejoin="round"/>
<path d="M44.1235 38L43.899 43.8L49.8603 32.125L44.1235 38Z" fill="#E27525" stroke="#E27525" stroke-linecap="round" stroke-linejoin="round"/>
<path d="M27.9108 32.7749L26.5888 40.0999L28.26 48.7499L28.6341 37.3499L27.9108 32.7749Z" fill="#E27525" stroke="#E27525" stroke-linecap="round" stroke-linejoin="round"/>
<path d="M35.643 32.7749L34.9446 37.3249L35.2938 48.7499L36.9649 40.0999L35.643 32.7749Z" fill="#E27525" stroke="#E27525" stroke-linecap="round" stroke-linejoin="round"/>
<path d="M36.965 40.1L35.2938 48.75L36.4911 49.6L43.899 43.8L44.1235 38L36.965 40.1Z" fill="#F5841F" stroke="#F5841F" stroke-linecap="round" stroke-linejoin="round"/>
<path d="M19.4553 38L19.6548 43.8L27.0628 49.6L28.26 48.75L26.5889 40.1L19.4553 38Z" fill="#F5841F" stroke="#F5841F" stroke-linecap="round" stroke-linejoin="round"/>
<path d="M37.1146 57.5749L37.1894 55.1999L36.5409 54.6499H27.0128L26.3893 55.1999L26.4392 57.5749L18.4575 53.7749L21.2511 56.0749L26.9131 59.9999H36.6157L42.3027 56.0749L45.0713 53.7749L37.1146 57.5749Z" fill="#C0AC9D" stroke="#C0AC9D" stroke-linecap="round" stroke-linejoin="round"/>
<path d="M36.491 49.6L35.2938 48.75H28.26L27.0627 49.6L26.3893 55.2L27.0128 54.65H36.5409L37.1894 55.2L36.491 49.6Z" fill="#161616" stroke="#161616" stroke-linecap="round" stroke-linejoin="round"/>
<path d="M61.9326 19.975L64.0527 9.625L60.86 0L36.4911 18.125L45.8695 26.075L59.114 29.95L62.0323 26.525L60.7603 25.6L62.7806 23.75L61.2342 22.55L63.2545 21L61.9326 19.975Z" fill="#763E1A" stroke="#763E1A" stroke-linecap="round" stroke-linejoin="round"/>
<path d="M-0.49884 9.625L1.64623 19.975L0.27438 21L2.31968 22.55L0.773233 23.75L2.79358 25.6L1.52151 26.525L4.4398 29.95L17.6843 26.075L27.0627 18.125L2.69382 0L-0.49884 9.625Z" fill="#763E1A" stroke="#763E1A" stroke-linecap="round" stroke-linejoin="round"/>
<path d="M59.114 29.95L45.8695 26.075L49.8603 32.1249L43.899 43.8L51.7809 43.6999H63.5538L59.114 29.95Z" fill="#F5841F" stroke="#F5841F" stroke-linecap="round" stroke-linejoin="round"/>
<path d="M17.6843 26.075L4.43981 29.95L0.0249634 43.6999H11.7729L19.6548 43.8L13.6935 32.1249L17.6843 26.075Z" fill="#F5841F" stroke="#F5841F" stroke-linecap="round" stroke-linejoin="round"/>
<path d="M35.643 32.775L36.4911 18.125L40.3323 7.69995H23.2216L27.0628 18.125L27.9108 32.775L28.2351 37.375L28.26 48.75H35.2938L35.3188 37.375L35.643 32.775Z" fill="#F5841F" stroke="#F5841F" stroke-linecap="round" stroke-linejoin="round"/>
</g>
<defs>
<clipPath id="clip0_53_220">
<rect width="326" height="60" fill="white"/>
</clipPath>
</defs>
</svg>
