<svg width="238" height="60" viewBox="0 0 238 60" fill="none" xmlns="http://www.w3.org/2000/svg">
<g id="63dc31f8817a4a509d7635a7_Logo 1">
<g id="Vector">
<path d="M77.931 50.3448V20.6897H82.069L82.7586 22.7586V22.7586C84.0263 21.1044 86.6553 20 89.6552 20C95.1453 20 99.3103 24.3831 99.3103 31.0345C99.3103 37.6856 95.1491 42.069 89.6552 42.069C86.6969 42.069 84.5462 41.3968 83.4483 40H82.7586V50.3448H77.931V50.3448ZM94.4828 31.0345C94.4828 27.1355 91.3173 24.8276 88.2759 24.8276C85.2346 24.8276 82.7586 27.1355 82.7586 31.0345C82.7586 34.9337 85.2346 37.2414 88.2759 37.2414C91.3173 37.2414 94.4828 34.9337 94.4828 31.0345Z" fill="white"/>
</g>
<g id="Vector_2">
<path d="M102.069 31.0345C102.069 24.6139 106.79 20 113.103 20C119.416 20 124.138 24.6139 124.138 31.0345C124.138 37.4551 119.416 42.069 113.103 42.069C106.79 42.069 102.069 37.4101 102.069 31.0345ZM118.621 31.0345C118.621 27.2564 116.279 24.8276 113.103 24.8276C109.928 24.8276 107.586 27.2602 107.586 31.0345C107.586 34.8089 109.928 37.2414 113.103 37.2414C116.279 37.2414 118.621 34.8125 118.621 31.0345Z" fill="white"/>
</g>
<g id="Vector_3">
<path d="M127.586 42.069V12.4138H133.103V42.069H127.586V42.069Z" fill="white"/>
</g>
<g id="Vector_4">
<path d="M152.414 20.6897H157.931L148.276 46.2069C147.331 48.7694 146.16 50.3449 142.759 50.3449H137.931V45.5173H142.069C142.845 45.5173 143.187 45.458 143.448 44.8276L144.138 43.4483L135.172 20.6897H140.69L146.207 35.1725H147.586L152.414 20.6897Z" fill="white"/>
</g>
<g id="Vector_5">
<path d="M158.621 43.4483H164.138C164.353 44.8574 165.614 46.2069 168.966 46.2069C172.098 46.2069 173.793 44.3728 173.793 41.3793V38.6207V38.6207C172.635 39.8614 170.335 40.6897 167.586 40.6897C162.008 40.6897 157.931 36.4997 157.931 30.3448C157.931 24.1899 162.008 20 167.586 20C170.462 20 172.463 21.1321 173.793 22.7586H174.483V20.6897H179.31V41.3793C179.31 47.1066 175.533 51.0345 168.966 51.0345C161.627 51.0345 158.751 46.5678 158.621 43.4483ZM173.793 30.3448C173.793 26.9695 172.014 24.8276 168.966 24.8276C165.917 24.8276 163.448 26.9695 163.448 30.3448C163.448 33.7202 165.96 35.8621 168.966 35.8621C171.971 35.8621 173.793 33.762 173.793 30.3448Z" fill="white"/>
</g>
<g id="Vector_6">
<path d="M182.759 31.0345C182.759 24.6139 187.48 20 193.793 20C200.106 20 204.828 24.6139 204.828 31.0345C204.828 37.4551 200.106 42.069 193.793 42.069C187.48 42.069 182.759 37.4101 182.759 31.0345ZM199.31 31.0345C199.31 27.2564 196.969 24.8276 193.793 24.8276C190.617 24.8276 188.276 27.2602 188.276 31.0345C188.276 34.8089 190.617 37.2414 193.793 37.2414C196.969 37.2414 199.31 34.8125 199.31 31.0345Z" fill="white"/>
</g>
<g id="Vector_7">
<path d="M208.276 42.069V20.6897H213.103V22.7586V22.7586C213.962 21.7768 216.74 20 220 20C224.978 20 228.276 23.4913 228.276 28.9655V42.069H222.759V29.6552C222.759 26.874 221.323 24.8276 218.621 24.8276C215.918 24.8276 213.793 26.9619 213.793 29.6552V42.069H208.276V42.069Z" fill="white"/>
</g>
<g id="Vector_8">
<path d="M48.2759 40.0001L60.6897 32.4139C61.3661 32.023 62.069 31.1229 62.069 30.3449V15.8622C62.069 15.0842 61.3661 14.1841 60.6897 13.7932L48.2759 6.20701C47.5994 5.81614 46.8795 5.81994 46.2069 6.20701L33.1035 13.7932C32.4272 14.1841 32.4138 15.0842 32.4138 15.8622V42.0691L23.4483 46.8967L14.4828 42.0691V31.7243L23.4483 26.8967L28.9655 29.6553V22.7587L24.1379 20.0001C23.8074 19.8104 23.8322 20.0001 23.4483 20.0001C23.0644 20.0001 22.3996 19.8104 22.069 20.0001L9.65519 27.5863C8.97883 27.9772 8.27588 28.8774 8.27588 29.6553V44.138C8.27588 44.916 8.97883 45.8161 9.65519 46.207L22.069 53.7932C22.7452 54.1803 23.4617 54.1803 24.1379 53.7932L37.2414 46.207C37.9178 45.8161 37.9311 44.916 37.9311 44.138V17.9312H38.6207L46.8966 13.1036L55.8621 17.9312V28.276L46.8966 33.1036L41.3793 30.3449V37.2415L46.2069 40.0001C46.8834 40.3871 47.6033 40.3871 48.2759 40.0001V40.0001Z" fill="url(#paint0_linear_18_1493)"/>
</g>
</g>
<defs>
<linearGradient id="paint0_linear_18_1493" x1="8.10109" y1="45.884" x2="60.0407" y2="16.0631" gradientUnits="userSpaceOnUse">
<stop stop-color="#A726C1"/>
<stop offset="0.88" stop-color="#803BDF"/>
<stop offset="1" stop-color="#7B3FE4"/>
</linearGradient>
</defs>
</svg>
