<svg width="302" height="60" viewBox="0 0 302 60" fill="none" xmlns="http://www.w3.org/2000/svg">
<path d="M20.6452 9.03234L11.6129 18.7098L14.8387 21.9356L18.0645 25.1614L23.871 19.3549L29.6774 13.5485L35.4839 19.3549L41.9355 25.1614L45.1613 21.9356L48.3871 18.0646L39.3548 9.03234C34.3325 3.98117 30.379 8.50558e-05 30.3226 8.50558e-05C30.2661 8.50558e-05 25.7051 3.94333 20.6452 9.03234Z" fill="#ECC115"/>
<path d="M252.258 14.1936C246.75 15.2512 242.744 19.3035 240.645 24.5161C239.109 28.3501 239.109 32.8081 240.645 36.7742C242.369 41.2125 245.788 45.0351 250.323 46.4516C254.276 47.6792 259.685 46.9366 263.226 45.1613C264.575 44.4625 266.711 43.6194 267.742 42.5807L268.387 41.2903L267.097 40.6452C266.535 40.0597 265.761 38.7067 265.161 38.0645L263.871 36.7742L263.226 38.0645C260.678 40.2365 258.332 40.834 255.484 40.6452C253.591 40.5319 252.523 40.3936 250.968 39.3549C248.738 37.8439 246.789 35.2421 246.452 32.2581C245.946 27.8009 248.109 23.0845 251.613 21.2903C253.487 20.3271 255.91 20.0786 258.064 20.6452C259.376 21.004 261.288 22.1871 262.581 23.2258C263.087 23.6413 263.777 23.871 263.871 23.871C264.021 23.871 268.293 19.657 268.387 19.3549C268.499 19.0716 265.389 16.9223 263.871 16.129C261.679 14.977 259.847 14.288 256.774 14.1936C255.069 14.1558 253.232 14.0047 252.258 14.1936Z" fill="#ECC115"/>
<path d="M167.742 29.6773C164.074 38.349 160.721 45.6356 160.645 45.8063C160.532 46.1289 160.619 46.4515 163.871 46.4515H167.742L168.387 43.8709C168.916 42.5995 169.394 41.3661 169.677 40.6451L170.323 39.3547H177.419H183.871L185.806 42.5805L187.097 46.4515H190.968C193.861 46.4895 194.269 46.6413 194.194 46.4515C194.137 46.3187 190.803 39.0321 187.097 30.3225L180.645 14.1934H177.419H174.194L167.742 29.6773ZM179.355 27.7418C180.489 30.5502 181.29 32.8082 181.29 32.9031C181.29 32.979 179.764 32.9031 177.419 32.9031C174.829 32.9031 172.903 33.017 172.903 32.9031C172.903 32.8082 173.988 31.1005 174.839 29.0321C177.297 22.979 177.344 22.5046 177.419 22.5805C177.457 22.6185 178.202 24.9335 179.355 27.7418Z" fill="#ECC115"/>
<path d="M70.9677 30.3226V46.4517H80C87.1816 46.3769 89.2614 46.0307 90.3226 45.8065C95.4577 44.7042 98.0645 42.4739 98.0645 38.0646C98.0645 34.5707 96.8644 32.0602 93.5484 30.3226L92.2581 29.6775H92.9032C94.0023 29.0049 95.6743 26.9836 96.129 25.8065C96.7164 24.3118 96.7164 21.5321 96.129 20C95.049 17.2349 91.9874 15.3993 88.3871 14.8388C87.686 14.7267 84.111 14.8388 79.3548 14.8388H70.9677V30.3226ZM86.4516 21.2904C88.2707 21.7201 89.6585 22.2082 89.6774 23.871C89.6774 26.6549 87.4288 27.742 80.6452 27.742H78.0645V24.5162V20.6452H81.9355C84.1335 20.6452 85.9968 21.197 86.4516 21.2904ZM88.3871 33.5484C89.4672 33.7726 90.3803 34.0727 90.9677 34.8388C91.5362 35.5861 91.5362 37.9624 90.9677 38.7097C89.8308 40.2231 88.6253 40.6452 82.5806 40.6452H78.0645V36.7742V33.5484H82.5806C85.2335 33.5484 87.8565 33.4363 88.3871 33.5484Z" fill="#ECC115"/>
<path d="M107.097 30.3226V46.4517H110.968H114.194V30.3226V14.8388H110.968H107.097V30.3226Z" fill="#ECC115"/>
<path d="M124.516 30.3226V46.4517H127.742H131.613V36.1291V26.4517L139.355 36.1291L147.097 46.4517H149.677H152.903V30.3226V14.8388H149.677H145.806V24.5162V34.1936L138.71 24.5162L130.968 14.8388H127.742H124.516V30.3226Z" fill="#ECC115"/>
<path d="M201.935 30.3226V46.4517H205.161H209.032V36.1291C209.032 30.6296 208.957 26.4517 209.032 26.4517C209.127 26.4517 212.535 30.6296 216.774 36.1291L224.516 46.4517H227.097H230.323V30.3226V14.8388H227.097H223.226V24.5162V34.1936L216.129 24.5162L208.387 14.8388H205.161H201.935V30.3226Z" fill="#ECC115"/>
<path d="M276.774 30.3226V46.4517H289.032H301.29V43.2259V40H292.258H283.871V36.7742V33.5484H291.613H298.71V30.3226V27.742H291.613H283.871V23.871V20.6452H292.258H300.645V18.0646V14.8388H289.032H276.774V30.3226Z" fill="#ECC115"/>
<path d="M26.4516 26.4516L23.2258 29.6774L26.4516 33.5484L30.3226 36.7742L33.5484 33.5484L36.7742 29.6774L33.5484 26.4516L30.3226 23.2258L26.4516 26.4516Z" fill="#ECC115"/>
<path d="M49.6774 26.4516L46.4516 29.6774L49.6774 33.5484L53.5484 36.7742L56.7742 33.5484L60 29.6774L56.7742 26.4516L53.5484 23.2258L49.6774 26.4516Z" fill="#ECC115"/>
<path d="M3.22581 26.4516L0 29.6774L3.22581 33.5484L7.09677 36.7742L10.3226 33.5484L13.5484 29.6774L10.3226 26.4516C8.49069 24.6067 7.15402 23.2258 7.09677 23.2258C7.03953 23.2258 5.0577 24.6067 3.22581 26.4516Z" fill="#ECC115"/>
<path d="M14.8387 38.0645L11.6129 41.2903L20.6452 50.9677L30.3226 60L39.3548 50.9677L48.3871 41.9355L45.1613 38.0645L41.9355 34.8387L35.4839 40.6452L29.6774 46.4516L23.871 40.6452L18.0645 34.8387L14.8387 38.0645Z" fill="#ECC115"/>
</svg>
