<svg width="25" height="24" viewBox="0 0 25 24" fill="none" xmlns="http://www.w3.org/2000/svg">
<g id="vcru.svg" clip-path="url(#clip0_1_340)">
<g id="Clip path group">
<mask id="mask0_1_340" style="mask-type:luminance" maskUnits="userSpaceOnUse" x="0" y="0" width="26" height="24">
<g id="clip0_2809_5193">
<path id="Vector" d="M25.0006 0H0.000587463V24H25.0006V0Z" fill="white"/>
</g>
</mask>
<g mask="url(#mask0_1_340)">
<g id="Group">
<g id="Vector_2">
<path d="M20.0006 11C21.8534 11 22.9721 10.3819 24.0006 9L23.0006 8C22.661 8.46016 22.5041 8.74397 22.0006 9C21.4971 9.25603 20.5623 9.00194 20.0006 9C17.9898 9 17.0006 8.06709 17.0006 6C17.0006 3.93289 17.9087 2 20.0006 2C20.9305 2 21.4273 1.63475 22.0006 2V4H24.0006V1V1C23.0497 0.230676 21.2143 0 20.0006 0C17.0333 0 15.0006 2.94859 15.0006 6C15.0006 9.04851 17.0319 11 20.0006 11ZM24.0006 22V19V13H20.0006V15H22.0006V19C22.0006 20.8169 20.3619 22 19.0006 22C17.6393 22 17.0006 21.8162 17.0006 20V13H14.0006V15H15.0006V20C15.0006 22.4647 16.6039 24 19.0006 24C20.3779 24 21.3748 23.2115 22.0006 22V22V24H25.0006V22H24.0006V22V22ZM14.0006 0H11.0006L9.00059 8V8L6.00059 0H3.00059V2H5.00059L8.00059 11H9.00059V11L13.0006 2H14.0006V0V0ZM0.000587463 24H2.00059V22H0.000587463V24V24ZM7.00059 15V15V13H4.00059V15H5.00059V22H4.00059V24H11.0006V22H7.00059V18C7.19845 16.4398 8.44845 15 10.0006 15V15V16H12.0006V13H10.0006C8.43446 12.9957 7.69138 13.7734 7.00059 15V15Z" fill="#F2EAFF" fill-opacity="0.8"/>
</g>
</g>
</g>
</g>
</g>
<defs>
<clipPath id="clip0_1_340">
<rect width="25" height="24" fill="white" transform="translate(0.000587463)"/>
</clipPath>
</defs>
</svg>
