<svg width="180" height="32" viewBox="0 0 180 32" fill="none" xmlns="http://www.w3.org/2000/svg">
<path d="M2 2H23C30.649 2 34 4.32779 34 12V18C34 25.3825 31.6441 29 24 29H2V2ZM9 23H23C25.7051 23 26 21.8439 26 19V12C26 8.50912 25.5627 8 23 8H9V23Z" fill="#ABBFD4"/>
<path d="M24 12V19C23.9608 19.4567 23.7898 19.5892 24 20H16C15.8828 19.4422 15.993 18.5691 16 18V13C15.9955 12.4602 15.9152 11.5335 16 11H24C23.8091 11.6314 24 11.1597 24 12Z" fill="#6522D9"/>
<path d="M44 2L49 8V12H42V8H37C37 5.26415 34.7835 3.38034 33 2H44Z" fill="#6522D9"/>
<path d="M72 2L54 26C53.1742 27.0727 52.2088 27.4029 51 28C49.7912 28.5971 48.3458 28.9999 47 29H33C34.6636 27.6343 36 25.8761 36 23H42C43.3446 23.0001 44.7921 22.5963 46 22C47.2079 21.4037 48.1744 21.0714 49 20L63 2H72Z" fill="#6522D9"/>
<path d="M68 14L63 20L70 29H79L68 14Z" fill="#ABBFD4"/>
<path d="M49 2L54 8L59 2H58H49Z" fill="#ABBFD4"/>
<path d="M125 12C125.009 13.4841 125.171 15.526 125 17C124.322 21.4413 121.921 23 116 23H101V29H94V2H116C121.324 2 124.164 3.70356 125 8C125.211 9.48035 125.011 10.5044 125 12ZM118 10C118 9.35088 117.454 9.459 117 9C116.546 8.541 115.642 8 115 8H101V17H115C115.318 17.0006 115.706 17.1225 116 17C116.294 16.8775 116.775 16.2269 117 16C117.225 15.7731 116.878 15.2967 117 15C117.122 14.7033 118 14.3212 118 14V10Z" fill="#ABBFD4"/>
<path d="M177 8C176.162 3.70202 173.342 2 168 2H147C149.221 3.61778 151 5.5575 151 11C151 13.7864 149.867 16.02 147 18L141 21H151V29H153V23H168C173.941 23 176.315 21.4477 177 17C177.172 15.5271 177.009 13.483 177 12C177.011 10.5023 177.212 9.48249 177 8ZM170 14C170 14.6481 169.454 15.5417 169 16C168.546 16.4583 167.642 17 167 17H153V8H167C167.643 8.00128 168.546 8.54097 169 9C169.454 9.45903 170 9.35148 170 10V14Z" fill="#ABBFD4"/>
<path d="M147 12C147 8.83858 147.357 4.9596 143 3C142.047 2.57526 140.155 2 138 2H124C124.969 2.63456 126.463 3.9661 127 5C127.537 6.0339 127.033 6.83238 127 8H137C140.475 8.25098 139.832 10.9333 137 12L127 16C127 22.9648 123.907 26 118 26H117V29H145V23H131C130.761 22.9984 131.182 23.1565 131 23C130.818 22.8435 130.041 22.2386 130 22C129.88 22.2096 129.959 21.7614 130 22C130.12 21.7904 130.775 21.0831 131 21L141 18C142.969 17.2905 147 15.5089 147 12Z" fill="#6522D9"/>
<path d="M148 23H144.5V29H148V23Z" fill="#6522D9"/>
<path d="M92 8V14H71L69 11L71 8H92Z" fill="#ABBFD4"/>
</svg>
